<mxfile host="app.diagrams.net" agent="Mozilla/5.0 (Windows NT 10.0; Win64; x64) AppleWebKit/537.36 (KHTML, like Gecko) Chrome/136.0.0.0 Safari/537.36" version="27.0.6">
  <diagram name="第 1 页" id="tUl_epbtWHfM1TAFVZRK">
    <mxGraphModel dx="1042" dy="600" grid="1" gridSize="10" guides="1" tooltips="1" connect="1" arrows="1" fold="1" page="1" pageScale="1" pageWidth="827" pageHeight="1169" math="0" shadow="0">
      <root>
        <mxCell id="0" />
        <mxCell id="1" parent="0" />
        <mxCell id="xJx4WIZ2AIH6XRN2C7iX-2" value="填写空间信息" style="whiteSpace=wrap;strokeWidth=2;" vertex="1" parent="1">
          <mxGeometry x="320" y="214" width="156" height="54" as="geometry" />
        </mxCell>
        <mxCell id="xJx4WIZ2AIH6XRN2C7iX-18" style="edgeStyle=orthogonalEdgeStyle;rounded=0;orthogonalLoop=1;jettySize=auto;html=1;exitX=0;exitY=0.5;exitDx=0;exitDy=0;entryX=0.5;entryY=0;entryDx=0;entryDy=0;" edge="1" parent="1" source="xJx4WIZ2AIH6XRN2C7iX-3" target="xJx4WIZ2AIH6XRN2C7iX-4">
          <mxGeometry relative="1" as="geometry" />
        </mxCell>
        <mxCell id="xJx4WIZ2AIH6XRN2C7iX-22" value="Text" style="edgeLabel;html=1;align=center;verticalAlign=middle;resizable=0;points=[];" vertex="1" connectable="0" parent="xJx4WIZ2AIH6XRN2C7iX-18">
          <mxGeometry x="-0.4512" y="1" relative="1" as="geometry">
            <mxPoint as="offset" />
          </mxGeometry>
        </mxCell>
        <mxCell id="xJx4WIZ2AIH6XRN2C7iX-23" value="验证通过" style="edgeLabel;html=1;align=center;verticalAlign=middle;resizable=0;points=[];" vertex="1" connectable="0" parent="xJx4WIZ2AIH6XRN2C7iX-18">
          <mxGeometry x="-0.5907" y="-1" relative="1" as="geometry">
            <mxPoint as="offset" />
          </mxGeometry>
        </mxCell>
        <mxCell id="xJx4WIZ2AIH6XRN2C7iX-19" style="edgeStyle=orthogonalEdgeStyle;rounded=0;orthogonalLoop=1;jettySize=auto;html=1;exitX=1;exitY=0.5;exitDx=0;exitDy=0;" edge="1" parent="1" source="xJx4WIZ2AIH6XRN2C7iX-3">
          <mxGeometry relative="1" as="geometry">
            <mxPoint x="510" y="370" as="targetPoint" />
          </mxGeometry>
        </mxCell>
        <mxCell id="xJx4WIZ2AIH6XRN2C7iX-3" value="验证输入参数" style="rhombus;strokeWidth=2;whiteSpace=wrap;" vertex="1" parent="1">
          <mxGeometry x="323" y="298" width="150" height="62" as="geometry" />
        </mxCell>
        <mxCell id="xJx4WIZ2AIH6XRN2C7iX-24" style="edgeStyle=orthogonalEdgeStyle;rounded=0;orthogonalLoop=1;jettySize=auto;html=1;exitX=0.5;exitY=1;exitDx=0;exitDy=0;entryX=0.5;entryY=0;entryDx=0;entryDy=0;" edge="1" parent="1" source="xJx4WIZ2AIH6XRN2C7iX-4" target="xJx4WIZ2AIH6XRN2C7iX-7">
          <mxGeometry relative="1" as="geometry" />
        </mxCell>
        <mxCell id="xJx4WIZ2AIH6XRN2C7iX-4" value="生成空间标识" style="whiteSpace=wrap;strokeWidth=2;" vertex="1" parent="1">
          <mxGeometry x="210" y="380" width="156" height="54" as="geometry" />
        </mxCell>
        <mxCell id="xJx4WIZ2AIH6XRN2C7iX-28" value="" style="edgeStyle=orthogonalEdgeStyle;rounded=0;orthogonalLoop=1;jettySize=auto;html=1;" edge="1" parent="1" source="xJx4WIZ2AIH6XRN2C7iX-7" target="xJx4WIZ2AIH6XRN2C7iX-27">
          <mxGeometry relative="1" as="geometry" />
        </mxCell>
        <mxCell id="xJx4WIZ2AIH6XRN2C7iX-7" value="更新空间列表" style="whiteSpace=wrap;strokeWidth=2;" vertex="1" parent="1">
          <mxGeometry x="210" y="470" width="156" height="54" as="geometry" />
        </mxCell>
        <mxCell id="xJx4WIZ2AIH6XRN2C7iX-25" style="edgeStyle=orthogonalEdgeStyle;rounded=0;orthogonalLoop=1;jettySize=auto;html=1;entryX=1;entryY=0.5;entryDx=0;entryDy=0;" edge="1" parent="1" source="xJx4WIZ2AIH6XRN2C7iX-8" target="xJx4WIZ2AIH6XRN2C7iX-2">
          <mxGeometry relative="1" as="geometry">
            <mxPoint x="660" y="230" as="targetPoint" />
            <Array as="points">
              <mxPoint x="630" y="398" />
              <mxPoint x="630" y="241" />
            </Array>
          </mxGeometry>
        </mxCell>
        <mxCell id="xJx4WIZ2AIH6XRN2C7iX-8" value="显示验证错误" style="whiteSpace=wrap;strokeWidth=2;" vertex="1" parent="1">
          <mxGeometry x="430" y="371" width="156" height="54" as="geometry" />
        </mxCell>
        <mxCell id="xJx4WIZ2AIH6XRN2C7iX-10" value="" style="curved=1;startArrow=none;endArrow=block;exitX=0.5;exitY=1;entryX=0.5;entryY=0;rounded=0;" edge="1" parent="1" source="xJx4WIZ2AIH6XRN2C7iX-2" target="xJx4WIZ2AIH6XRN2C7iX-3">
          <mxGeometry relative="1" as="geometry">
            <Array as="points" />
          </mxGeometry>
        </mxCell>
        <mxCell id="xJx4WIZ2AIH6XRN2C7iX-17" value="" style="edgeStyle=orthogonalEdgeStyle;rounded=0;orthogonalLoop=1;jettySize=auto;html=1;" edge="1" parent="1" source="xJx4WIZ2AIH6XRN2C7iX-16" target="xJx4WIZ2AIH6XRN2C7iX-2">
          <mxGeometry relative="1" as="geometry" />
        </mxCell>
        <mxCell id="xJx4WIZ2AIH6XRN2C7iX-16" value="开始" style="strokeWidth=2;html=1;shape=mxgraph.flowchart.terminator;whiteSpace=wrap;" vertex="1" parent="1">
          <mxGeometry x="348" y="120" width="100" height="60" as="geometry" />
        </mxCell>
        <mxCell id="xJx4WIZ2AIH6XRN2C7iX-21" value="验证不通过" style="text;html=1;align=center;verticalAlign=middle;resizable=0;points=[];autosize=1;strokeColor=none;fillColor=none;" vertex="1" parent="1">
          <mxGeometry x="450" y="298" width="80" height="30" as="geometry" />
        </mxCell>
        <mxCell id="xJx4WIZ2AIH6XRN2C7iX-27" value="结束" style="strokeWidth=2;html=1;shape=mxgraph.flowchart.terminator;whiteSpace=wrap;" vertex="1" parent="1">
          <mxGeometry x="238" y="550" width="100" height="60" as="geometry" />
        </mxCell>
      </root>
    </mxGraphModel>
  </diagram>
</mxfile>
